<svg width="149" height="29" viewBox="0 0 149 29" fill="none" xmlns="http://www.w3.org/2000/svg">
<path d="M10.5 11.25V9.25C10.5 7.60626 10.5 6.78439 10.046 6.23121C9.96291 6.12995 9.87005 6.03709 9.76879 5.95398C9.21561 5.5 8.39374 5.5 6.75 5.5C5.10626 5.5 4.28439 5.5 3.73121 5.95398C3.62995 6.03709 3.53709 6.12995 3.45398 6.23121C3 6.78439 3 7.60626 3 9.25V11.25C3 12.8937 3 13.7156 3.45398 14.2688C3.53709 14.3701 3.62995 14.4629 3.73121 14.546C4.28439 15 5.10626 15 6.75 15C8.39374 15 9.21561 15 9.76879 14.546C9.87005 14.4629 9.96291 14.3701 10.046 14.2688C10.5 13.7156 10.5 12.8937 10.5 11.25Z" fill="#3399FF" stroke="#3399FF" stroke-width="1.5" stroke-linejoin="round"/>
<path d="M7.75 18H5.75C5.05222 18 4.70333 18 4.41943 18.0861C3.78023 18.28 3.28002 18.7802 3.08612 19.4194C3 19.7033 3 20.0522 3 20.75C3 21.4478 3 21.7967 3.08612 22.0806C3.28002 22.7198 3.78023 23.22 4.41943 23.4139C4.70333 23.5 5.05222 23.5 5.75 23.5H7.75C8.44778 23.5 8.79667 23.5 9.08057 23.4139C9.71977 23.22 10.22 22.7198 10.4139 22.0806C10.5 21.7967 10.5 21.4478 10.5 20.75C10.5 20.0522 10.5 19.7033 10.4139 19.4194C10.22 18.7802 9.71977 18.28 9.08057 18.0861C8.79667 18 8.44778 18 7.75 18Z" fill="#3399FF" stroke="#3399FF" stroke-width="1.5" stroke-linejoin="round"/>
<path d="M21 19.75V17.75C21 16.1063 21 15.2844 20.546 14.7312C20.4629 14.6299 20.3701 14.5371 20.2688 14.454C19.7156 14 18.8937 14 17.25 14C15.6063 14 14.7844 14 14.2312 14.454C14.1299 14.5371 14.0371 14.6299 13.954 14.7312C13.5 15.2844 13.5 16.1063 13.5 17.75V19.75C13.5 21.3937 13.5 22.2156 13.954 22.7688C14.0371 22.8701 14.1299 22.9629 14.2312 23.046C14.7844 23.5 15.6063 23.5 17.25 23.5C18.8937 23.5 19.7156 23.5 20.2688 23.046C20.3701 22.9629 20.4629 22.8701 20.546 22.7688C21 22.2156 21 21.3937 21 19.75Z" fill="#3399FF" stroke="#3399FF" stroke-width="1.5" stroke-linejoin="round"/>
<path d="M18.25 5.5H16.25C15.5522 5.5 15.2033 5.5 14.9194 5.58612C14.2802 5.78002 13.78 6.28023 13.5861 6.91943C13.5 7.20333 13.5 7.55222 13.5 8.25C13.5 8.94778 13.5 9.29667 13.5861 9.58057C13.78 10.2198 14.2802 10.72 14.9194 10.9139C15.2033 11 15.5522 11 16.25 11H18.25C18.9478 11 19.2967 11 19.5806 10.9139C20.2198 10.72 20.72 10.2198 20.9139 9.58057C21 9.29667 21 8.94778 21 8.25C21 7.55222 21 7.20333 20.9139 6.91943C20.72 6.28023 20.2198 5.78002 19.5806 5.58612C19.2967 5.5 18.9478 5.5 18.25 5.5Z" fill="#3399FF" stroke="#3399FF" stroke-width="1.5" stroke-linejoin="round"/>
<path d="M31.7216 23V5.54545H42.9034V8.19602H34.8835V12.9347H42.1364V15.5852H34.8835V23H31.7216ZM50.397 23.2557C49.1186 23.2557 48.0107 22.9744 47.0732 22.4119C46.1357 21.8494 45.4084 21.0625 44.8913 20.0511C44.38 19.0398 44.1243 17.858 44.1243 16.5057C44.1243 15.1534 44.38 13.9687 44.8913 12.9517C45.4084 11.9347 46.1357 11.1449 47.0732 10.5824C48.0107 10.0199 49.1186 9.73864 50.397 9.73864C51.6754 9.73864 52.7834 10.0199 53.7209 10.5824C54.6584 11.1449 55.3828 11.9347 55.8942 12.9517C56.4112 13.9687 56.6697 15.1534 56.6697 16.5057C56.6697 17.858 56.4112 19.0398 55.8942 20.0511C55.3828 21.0625 54.6584 21.8494 53.7209 22.4119C52.7834 22.9744 51.6754 23.2557 50.397 23.2557ZM50.4141 20.7841C51.1072 20.7841 51.6868 20.5937 52.1527 20.2131C52.6186 19.8267 52.9652 19.3097 53.1925 18.6619C53.4254 18.0142 53.5419 17.2926 53.5419 16.4972C53.5419 15.696 53.4254 14.9716 53.1925 14.3239C52.9652 13.6705 52.6186 13.1506 52.1527 12.7642C51.6868 12.3778 51.1072 12.1847 50.4141 12.1847C49.7038 12.1847 49.1129 12.3778 48.6413 12.7642C48.1754 13.1506 47.826 13.6705 47.593 14.3239C47.3658 14.9716 47.2521 15.696 47.2521 16.4972C47.2521 17.2926 47.3658 18.0142 47.593 18.6619C47.826 19.3097 48.1754 19.8267 48.6413 20.2131C49.1129 20.5937 49.7038 20.7841 50.4141 20.7841ZM64.9986 23.2557C63.6918 23.2557 62.5696 22.9688 61.6321 22.3949C60.7003 21.821 59.9815 21.0284 59.4759 20.017C58.9759 19 58.7259 17.8295 58.7259 16.5057C58.7259 15.1761 58.9815 14.0028 59.4929 12.9858C60.0043 11.9631 60.7259 11.1676 61.6577 10.5994C62.5952 10.0256 63.7031 9.73864 64.9815 9.73864C66.044 9.73864 66.9844 9.93466 67.8026 10.3267C68.6264 10.7131 69.2827 11.2614 69.7713 11.9716C70.2599 12.6761 70.5384 13.5 70.6065 14.4432H67.6577C67.5384 13.8125 67.2543 13.2869 66.8054 12.8665C66.3622 12.4403 65.7685 12.2273 65.0241 12.2273C64.3935 12.2273 63.8395 12.3977 63.3622 12.7386C62.8849 13.0739 62.5128 13.5568 62.2457 14.1875C61.9844 14.8182 61.8537 15.5739 61.8537 16.4545C61.8537 17.3466 61.9844 18.1136 62.2457 18.7557C62.5071 19.392 62.8736 19.8835 63.3452 20.2301C63.8224 20.571 64.3821 20.7415 65.0241 20.7415C65.4787 20.7415 65.8849 20.6562 66.2429 20.4858C66.6065 20.3097 66.9105 20.0568 67.1548 19.7273C67.3991 19.3977 67.5668 18.9972 67.6577 18.5256H70.6065C70.5327 19.4517 70.2599 20.2727 69.7884 20.9886C69.3168 21.6989 68.6747 22.2557 67.8622 22.6591C67.0497 23.0568 66.0952 23.2557 64.9986 23.2557ZM81.4837 17.4943V9.90909H84.5689V23H81.5774V20.6733H81.4411C81.1456 21.4062 80.6598 22.0057 79.9837 22.4716C79.3132 22.9375 78.4865 23.1705 77.5036 23.1705C76.6456 23.1705 75.8871 22.9801 75.228 22.5994C74.5746 22.2131 74.0632 21.6534 73.6939 20.9205C73.3246 20.1818 73.1399 19.2898 73.1399 18.2443V9.90909H76.2251V17.767C76.2251 18.5966 76.4524 19.2557 76.907 19.7443C77.3615 20.233 77.9581 20.4773 78.6967 20.4773C79.1513 20.4773 79.5916 20.3665 80.0178 20.1449C80.4439 19.9233 80.7933 19.5938 81.0661 19.1562C81.3445 18.7131 81.4837 18.1591 81.4837 17.4943ZM98.0881 13.3693L95.2756 13.6761C95.196 13.392 95.0568 13.125 94.858 12.875C94.6648 12.625 94.4034 12.4233 94.0739 12.2699C93.7443 12.1165 93.3409 12.0398 92.8636 12.0398C92.2216 12.0398 91.6818 12.179 91.2443 12.4574C90.8125 12.7358 90.5994 13.0966 90.6051 13.5398C90.5994 13.9205 90.7386 14.2301 91.0227 14.4688C91.3125 14.7074 91.7898 14.9034 92.4545 15.0568L94.6875 15.5341C95.9261 15.8011 96.8466 16.2244 97.4489 16.804C98.0568 17.3835 98.3636 18.142 98.3693 19.0795C98.3636 19.9034 98.1222 20.6307 97.6449 21.2614C97.1733 21.8864 96.517 22.375 95.6761 22.7273C94.8352 23.0795 93.8693 23.2557 92.7784 23.2557C91.1761 23.2557 89.8864 22.9205 88.9091 22.25C87.9318 21.5739 87.3494 20.6335 87.1619 19.429L90.1705 19.1392C90.3068 19.7301 90.5966 20.1761 91.0398 20.4773C91.483 20.7784 92.0597 20.929 92.7699 20.929C93.5028 20.929 94.0909 20.7784 94.5341 20.4773C94.983 20.1761 95.2074 19.804 95.2074 19.3608C95.2074 18.9858 95.0625 18.6761 94.7727 18.4318C94.4886 18.1875 94.0455 18 93.4432 17.8693L91.2102 17.4006C89.9545 17.1392 89.0256 16.6989 88.4233 16.0795C87.821 15.4545 87.5227 14.6648 87.5284 13.7102C87.5227 12.9034 87.7415 12.2045 88.1847 11.6136C88.6335 11.017 89.2557 10.5568 90.0511 10.233C90.8523 9.90341 91.7756 9.73864 92.821 9.73864C94.3551 9.73864 95.5625 10.0653 96.4432 10.7188C97.3295 11.3722 97.8778 12.2557 98.0881 13.3693ZM112.743 11.1193C112.601 10.6591 112.405 10.2472 112.155 9.88352C111.911 9.5142 111.615 9.19886 111.268 8.9375C110.928 8.67614 110.536 8.48011 110.092 8.34943C109.649 8.21307 109.166 8.14489 108.643 8.14489C107.706 8.14489 106.871 8.38068 106.138 8.85227C105.405 9.32386 104.828 10.017 104.408 10.9318C103.993 11.8409 103.786 12.9489 103.786 14.2557C103.786 15.5739 103.993 16.6903 104.408 17.6051C104.822 18.5199 105.399 19.2159 106.138 19.6932C106.876 20.1648 107.734 20.4006 108.712 20.4006C109.598 20.4006 110.365 20.2301 111.013 19.8892C111.666 19.5483 112.169 19.0653 112.521 18.4403C112.874 17.8097 113.05 17.071 113.05 16.2244L113.766 16.3352H109.027V13.8636H116.109V15.9602C116.109 17.4545 115.791 18.7472 115.155 19.8381C114.518 20.929 113.643 21.7699 112.53 22.3608C111.416 22.946 110.138 23.2386 108.695 23.2386C107.087 23.2386 105.675 22.8778 104.459 22.1562C103.249 21.429 102.303 20.3977 101.621 19.0625C100.945 17.7216 100.607 16.1307 100.607 14.2898C100.607 12.8807 100.805 11.6222 101.203 10.5142C101.607 9.40625 102.169 8.46591 102.891 7.69318C103.612 6.91477 104.459 6.32386 105.43 5.92045C106.402 5.51136 107.459 5.30682 108.601 5.30682C109.567 5.30682 110.467 5.44886 111.303 5.73295C112.138 6.01136 112.879 6.40909 113.527 6.92614C114.18 7.44318 114.717 8.05682 115.138 8.76704C115.558 9.47727 115.834 10.2614 115.964 11.1193H112.743ZM119.031 23V9.90909H122.022V12.0909H122.158C122.397 11.3352 122.806 10.7528 123.386 10.3438C123.971 9.92898 124.638 9.72159 125.388 9.72159C125.559 9.72159 125.749 9.73011 125.96 9.74716C126.175 9.75852 126.354 9.77841 126.496 9.80682V12.6449C126.366 12.5994 126.158 12.5597 125.874 12.5256C125.596 12.4858 125.326 12.4659 125.065 12.4659C124.502 12.4659 123.996 12.5881 123.548 12.8324C123.104 13.071 122.755 13.4034 122.499 13.8295C122.244 14.2557 122.116 14.7472 122.116 15.304V23H119.031ZM128.546 23V9.90909H131.631V23H128.546ZM130.097 8.05114C129.609 8.05114 129.188 7.8892 128.836 7.56534C128.484 7.23579 128.308 6.84091 128.308 6.38068C128.308 5.91477 128.484 5.51989 128.836 5.19602C129.188 4.86648 129.609 4.7017 130.097 4.7017C130.592 4.7017 131.012 4.86648 131.359 5.19602C131.711 5.51989 131.887 5.91477 131.887 6.38068C131.887 6.84091 131.711 7.23579 131.359 7.56534C131.012 7.8892 130.592 8.05114 130.097 8.05114ZM139.662 23.2301C138.634 23.2301 137.713 22.9659 136.901 22.4375C136.088 21.9091 135.446 21.142 134.974 20.1364C134.503 19.1307 134.267 17.9091 134.267 16.4716C134.267 15.017 134.506 13.7898 134.983 12.7898C135.466 11.7841 136.116 11.0256 136.935 10.5142C137.753 9.99716 138.665 9.73864 139.67 9.73864C140.438 9.73864 141.068 9.86932 141.562 10.1307C142.057 10.3864 142.449 10.696 142.739 11.0597C143.028 11.4176 143.253 11.7557 143.412 12.0739H143.54V5.54545H146.634V23H143.599V20.9375H143.412C143.253 21.2557 143.023 21.5937 142.722 21.9517C142.42 22.304 142.023 22.6051 141.528 22.8551C141.034 23.1051 140.412 23.2301 139.662 23.2301ZM140.523 20.6989C141.176 20.6989 141.733 20.5227 142.193 20.1705C142.653 19.8125 143.003 19.3153 143.241 18.679C143.48 18.0426 143.599 17.3011 143.599 16.4545C143.599 15.608 143.48 14.8722 143.241 14.2472C143.009 13.6222 142.662 13.1364 142.202 12.7898C141.747 12.4432 141.188 12.2699 140.523 12.2699C139.835 12.2699 139.261 12.4489 138.801 12.8068C138.341 13.1648 137.994 13.6591 137.761 14.2898C137.528 14.9205 137.412 15.642 137.412 16.4545C137.412 17.2727 137.528 18.0028 137.761 18.6449C138 19.2812 138.349 19.7841 138.81 20.1534C139.276 20.517 139.847 20.6989 140.523 20.6989Z" fill="black"/>
</svg>
