<svg width="98" height="18" viewBox="0 0 98 18" fill="none" xmlns="http://www.w3.org/2000/svg">
<path d="M8.19374 2.60911C8.26801 2.45839 8.383 2.33147 8.52567 2.24272C8.66835 2.15397 8.83302 2.10693 9.00104 2.10693C9.16907 2.10693 9.33374 2.15397 9.47641 2.24272C9.61909 2.33147 9.73407 2.45839 9.80834 2.60911L11.5453 6.12901L15.4306 6.69331C15.5969 6.71745 15.753 6.78762 15.8814 6.8959C16.0099 7.00418 16.1054 7.14623 16.1573 7.30599C16.2092 7.46575 16.2153 7.63684 16.175 7.79991C16.1347 7.96298 16.0496 8.11151 15.9292 8.22871L13.1176 10.9692L13.7818 14.8383C13.8102 15.0038 13.7917 15.174 13.7284 15.3295C13.6651 15.485 13.5596 15.6198 13.4237 15.7185C13.2878 15.8172 13.1271 15.8759 12.9596 15.888C12.7921 15.9001 12.6246 15.8651 12.4759 15.7869L9.00194 13.9599L5.52614 15.7869C5.37754 15.8648 5.21011 15.8996 5.04278 15.8874C4.87544 15.8752 4.71485 15.8164 4.57913 15.7178C4.44341 15.6191 4.33797 15.4845 4.27472 15.3291C4.21146 15.1737 4.1929 15.0037 4.22114 14.8383L4.88444 10.9683L2.07284 8.22871C1.95251 8.11151 1.86738 7.96298 1.82707 7.79991C1.78677 7.63684 1.7929 7.46575 1.84478 7.30599C1.89666 7.14623 1.99222 7.00418 2.12064 6.8959C2.24906 6.78762 2.40521 6.71745 2.57144 6.69331L6.45674 6.12901L8.19374 2.60911Z" fill="url(#paint0_linear_101_5759)"/>
<path d="M28.1937 2.60911C28.268 2.45839 28.383 2.33147 28.5257 2.24272C28.6683 2.15397 28.833 2.10693 29.001 2.10693C29.1691 2.10693 29.3337 2.15397 29.4764 2.24272C29.6191 2.33147 29.7341 2.45839 29.8083 2.60911L31.5453 6.12901L35.4306 6.69331C35.5969 6.71745 35.753 6.78762 35.8814 6.8959C36.0099 7.00418 36.1054 7.14623 36.1573 7.30599C36.2092 7.46575 36.2153 7.63684 36.175 7.79991C36.1347 7.96298 36.0496 8.11151 35.9292 8.22871L33.1176 10.9692L33.7818 14.8383C33.8102 15.0038 33.7917 15.174 33.7284 15.3295C33.6651 15.485 33.5596 15.6198 33.4237 15.7185C33.2878 15.8172 33.1271 15.8759 32.9596 15.888C32.7921 15.9001 32.6246 15.8651 32.4759 15.7869L29.0019 13.9599L25.5261 15.7869C25.3775 15.8648 25.2101 15.8996 25.0428 15.8874C24.8754 15.8752 24.7148 15.8164 24.5791 15.7178C24.4434 15.6191 24.338 15.4845 24.2747 15.3291C24.2115 15.1737 24.1929 15.0037 24.2211 14.8383L24.8844 10.9683L22.0728 8.22871C21.9525 8.11151 21.8674 7.96298 21.8271 7.79991C21.7868 7.63684 21.7929 7.46575 21.8448 7.30599C21.8967 7.14623 21.9922 7.00418 22.1206 6.8959C22.2491 6.78762 22.4052 6.71745 22.5714 6.69331L26.4567 6.12901L28.1937 2.60911Z" fill="url(#paint1_linear_101_5759)"/>
<path d="M48.1937 2.60911C48.268 2.45839 48.383 2.33147 48.5257 2.24272C48.6683 2.15397 48.833 2.10693 49.001 2.10693C49.1691 2.10693 49.3337 2.15397 49.4764 2.24272C49.6191 2.33147 49.7341 2.45839 49.8083 2.60911L51.5453 6.12901L55.4306 6.69331C55.5969 6.71745 55.753 6.78762 55.8814 6.8959C56.0099 7.00418 56.1054 7.14623 56.1573 7.30599C56.2092 7.46575 56.2153 7.63684 56.175 7.79991C56.1347 7.96298 56.0496 8.11151 55.9292 8.22871L53.1176 10.9692L53.7818 14.8383C53.8102 15.0038 53.7917 15.174 53.7284 15.3295C53.6651 15.485 53.5596 15.6198 53.4237 15.7185C53.2878 15.8172 53.1271 15.8759 52.9596 15.888C52.7921 15.9001 52.6246 15.8651 52.4759 15.7869L49.0019 13.9599L45.5261 15.7869C45.3775 15.8648 45.2101 15.8996 45.0428 15.8874C44.8754 15.8752 44.7148 15.8164 44.5791 15.7178C44.4434 15.6191 44.338 15.4845 44.2747 15.3291C44.2115 15.1737 44.1929 15.0037 44.2211 14.8383L44.8844 10.9683L42.0728 8.22871C41.9525 8.11151 41.8674 7.96298 41.8271 7.79991C41.7868 7.63684 41.7929 7.46575 41.8448 7.30599C41.8967 7.14623 41.9922 7.00418 42.1206 6.8959C42.2491 6.78762 42.4052 6.71745 42.5714 6.69331L46.4567 6.12901L48.1937 2.60911Z" fill="url(#paint2_linear_101_5759)"/>
<path d="M68.1937 2.60911C68.268 2.45839 68.383 2.33147 68.5257 2.24272C68.6683 2.15397 68.833 2.10693 69.001 2.10693C69.1691 2.10693 69.3337 2.15397 69.4764 2.24272C69.6191 2.33147 69.7341 2.45839 69.8083 2.60911L71.5453 6.12901L75.4306 6.69331C75.5969 6.71745 75.753 6.78762 75.8814 6.8959C76.0099 7.00418 76.1054 7.14623 76.1573 7.30599C76.2092 7.46575 76.2153 7.63684 76.175 7.79991C76.1347 7.96298 76.0496 8.11151 75.9292 8.22871L73.1176 10.9692L73.7818 14.8383C73.8102 15.0038 73.7917 15.174 73.7284 15.3295C73.6651 15.485 73.5596 15.6198 73.4237 15.7185C73.2878 15.8172 73.1271 15.8759 72.9596 15.888C72.7921 15.9001 72.6246 15.8651 72.4759 15.7869L69.0019 13.9599L65.5261 15.7869C65.3775 15.8648 65.2101 15.8996 65.0428 15.8874C64.8754 15.8752 64.7148 15.8164 64.5791 15.7178C64.4434 15.6191 64.338 15.4845 64.2747 15.3291C64.2115 15.1737 64.1929 15.0037 64.2211 14.8383L64.8844 10.9683L62.0728 8.22871C61.9525 8.11151 61.8674 7.96298 61.8271 7.79991C61.7868 7.63684 61.7929 7.46575 61.8448 7.30599C61.8967 7.14623 61.9922 7.00418 62.1206 6.8959C62.2491 6.78762 62.4052 6.71745 62.5714 6.69331L66.4567 6.12901L68.1937 2.60911Z" fill="url(#paint3_linear_101_5759)"/>
<path d="M88.1937 2.60911C88.268 2.45839 88.383 2.33147 88.5257 2.24272C88.6683 2.15397 88.833 2.10693 89.001 2.10693C89.1691 2.10693 89.3337 2.15397 89.4764 2.24272C89.6191 2.33147 89.7341 2.45839 89.8083 2.60911L91.5453 6.12901L95.4306 6.69331C95.5969 6.71745 95.753 6.78762 95.8814 6.8959C96.0099 7.00418 96.1054 7.14623 96.1573 7.30599C96.2092 7.46575 96.2153 7.63684 96.175 7.79991C96.1347 7.96298 96.0496 8.11151 95.9292 8.22871L93.1176 10.9692L93.7818 14.8383C93.8102 15.0038 93.7917 15.174 93.7284 15.3295C93.6651 15.485 93.5596 15.6198 93.4237 15.7185C93.2878 15.8172 93.1271 15.8759 92.9596 15.888C92.7921 15.9001 92.6246 15.8651 92.4759 15.7869L89.0019 13.9599L85.5261 15.7869C85.3775 15.8648 85.2101 15.8996 85.0428 15.8874C84.8754 15.8752 84.7148 15.8164 84.5791 15.7178C84.4434 15.6191 84.338 15.4845 84.2747 15.3291C84.2115 15.1737 84.1929 15.0037 84.2211 14.8383L84.8844 10.9683L82.0728 8.22871C81.9525 8.11151 81.8674 7.96298 81.8271 7.79991C81.7868 7.63684 81.7929 7.46575 81.8448 7.30599C81.8967 7.14623 81.9922 7.00418 82.1206 6.8959C82.2491 6.78762 82.4052 6.71745 82.5714 6.69331L86.4567 6.12901L88.1937 2.60911Z" fill="url(#paint4_linear_101_5759)"/>
<defs>
<linearGradient id="paint0_linear_101_5759" x1="16.2001" y1="16.2" x2="1.39514" y2="2.22931" gradientUnits="userSpaceOnUse">
<stop stop-color="#FF6F47"/>
<stop offset="1" stop-color="#FFCD0F"/>
</linearGradient>
<linearGradient id="paint1_linear_101_5759" x1="36.2001" y1="16.2" x2="21.3951" y2="2.22931" gradientUnits="userSpaceOnUse">
<stop stop-color="#FF6F47"/>
<stop offset="1" stop-color="#FFCD0F"/>
</linearGradient>
<linearGradient id="paint2_linear_101_5759" x1="56.2001" y1="16.2" x2="41.3951" y2="2.22931" gradientUnits="userSpaceOnUse">
<stop stop-color="#FF6F47"/>
<stop offset="1" stop-color="#FFCD0F"/>
</linearGradient>
<linearGradient id="paint3_linear_101_5759" x1="76.2001" y1="16.2" x2="61.3951" y2="2.22931" gradientUnits="userSpaceOnUse">
<stop stop-color="#FF6F47"/>
<stop offset="1" stop-color="#FFCD0F"/>
</linearGradient>
<linearGradient id="paint4_linear_101_5759" x1="96.2001" y1="16.2" x2="81.3951" y2="2.22931" gradientUnits="userSpaceOnUse">
<stop stop-color="#FF6F47"/>
<stop offset="1" stop-color="#FFCD0F"/>
</linearGradient>
</defs>
</svg>
