<svg width="32" height="32" viewBox="0 0 32 32" fill="none" xmlns="http://www.w3.org/2000/svg">
<path d="M14.6667 2.66663C9.63835 2.66663 7.1242 2.66663 5.56209 4.17161C4 5.6766 4 8.09884 4 12.9433V23.9744C4 27.0489 4 28.5861 5.03047 29.1364C7.02596 30.2018 10.7691 26.6469 12.5467 25.5765C13.5776 24.9557 14.0931 24.6453 14.6667 24.6453C15.2403 24.6453 15.7557 24.9557 16.7867 25.5765C18.5643 26.6469 22.3073 30.2018 24.3029 29.1364C25.3333 28.5861 25.3333 27.0489 25.3333 23.9744V17.3333" stroke="#3399FF" stroke-width="2" stroke-linecap="round" stroke-linejoin="round"/>
<path d="M22.6654 13.3333V2.66663M17.332 7.99996H27.9987" stroke="#3399FF" stroke-width="2" stroke-linecap="round"/>
</svg>
