<svg width="32" height="32" viewBox="0 0 32 32" fill="none" xmlns="http://www.w3.org/2000/svg">
<path d="M15.7338 8.6527L17.7146 6.67194C19.9448 4.44165 22.8647 3.51654 25.9548 3.36537C27.1568 3.30657 27.7578 3.27717 28.2396 3.75909C28.7216 4.24099 28.6922 4.84195 28.6334 6.0439C28.4822 9.13404 27.5571 12.0539 25.3268 14.2842L23.346 16.265C21.7148 17.8962 21.2511 18.36 21.5935 20.1294C21.9315 21.481 22.2586 22.7898 21.2758 23.7726C20.0836 24.9647 18.9962 24.9647 17.804 23.7726L8.22614 14.1947C7.03402 13.0026 7.03398 11.9151 8.22614 10.723C9.20892 9.74016 10.5178 10.0673 11.8693 10.4052C13.6387 10.7477 14.1026 10.2839 15.7338 8.6527Z" stroke="#08BD4D" stroke-width="2" stroke-linejoin="round"/>
<path d="M22.6602 9.33337H22.6722" stroke="#08BD4D" stroke-width="2" stroke-linecap="round" stroke-linejoin="round"/>
<path d="M3.33203 28.6667L9.9987 22" stroke="#08BD4D" stroke-width="2" stroke-linecap="round"/>
<path d="M11.332 28.6667L13.9987 26" stroke="#08BD4D" stroke-width="2" stroke-linecap="round"/>
<path d="M3.33203 20.6667L5.9987 18" stroke="#08BD4D" stroke-width="2" stroke-linecap="round"/>
</svg>
