<svg width="32" height="32" viewBox="0 0 32 32" fill="none" xmlns="http://www.w3.org/2000/svg">
<path d="M17.9986 2.66663H11.332C10.2275 2.66663 9.33203 3.56205 9.33203 4.66663C9.33203 5.7712 10.2275 6.66663 11.332 6.66663H17.9986C19.1033 6.66663 19.9986 5.7712 19.9986 4.66663C19.9986 3.56205 19.1033 2.66663 17.9986 2.66663Z" stroke="#EC4899" stroke-width="2" stroke-linecap="round" stroke-linejoin="round"/>
<path d="M9.33203 20H13.9034M9.33203 14.6666H19.9986" stroke="#EC4899" stroke-width="2" stroke-linecap="round" stroke-linejoin="round"/>
<path d="M25.3294 17.3326L25.3295 12.6435C25.3295 8.87228 25.3295 6.98668 24.1579 5.81512C23.3028 4.96005 22.0674 4.72904 19.9962 4.66663M18.6627 29.3326H11.9961C8.22487 29.3326 6.33924 29.3326 5.16768 28.161C3.99611 26.9894 3.99609 25.1038 3.99609 21.3326L3.99611 12.6435C3.99609 8.87229 3.99609 6.98668 5.16767 5.81511C6.02272 4.96005 7.25811 4.72904 9.32929 4.66663" stroke="#EC4899" stroke-width="2" stroke-linecap="round" stroke-linejoin="round"/>
<path d="M27.9961 25.3334H23.9961M23.9961 25.3334H19.9961M23.9961 25.3334V29.3334M23.9961 25.3334V21.3334" stroke="#EC4899" stroke-width="2" stroke-linecap="round" stroke-linejoin="round"/>
</svg>
